<svg width="256" height="256" xmlns="http://www.w3.org/2000/svg" preserveAspectRatio="xMidYMid">
  <defs>
    <linearGradient id="aiGrad" x1="0%" y1="0%" x2="100%" y2="100%">
      <stop offset="0%" style="stop-color:#667eea;stop-opacity:1" />
      <stop offset="50%" style="stop-color:#764ba2;stop-opacity:1" />
      <stop offset="100%" style="stop-color:#f093fb;stop-opacity:1" />
    </linearGradient>
  </defs>
  <circle cx="128" cy="128" r="128" fill="url(#aiGrad)"/>
  <!-- Brain/Neural Network Pattern -->
  <circle cx="80" cy="80" r="8" fill="#FFF" opacity="0.9"/>
  <circle cx="128" cy="60" r="8" fill="#FFF" opacity="0.9"/>
  <circle cx="176" cy="80" r="8" fill="#FFF" opacity="0.9"/>
  <circle cx="60" cy="128" r="8" fill="#FFF" opacity="0.9"/>
  <circle cx="128" cy="128" r="12" fill="#FFF"/>
  <circle cx="196" cy="128" r="8" fill="#FFF" opacity="0.9"/>
  <circle cx="80" cy="176" r="8" fill="#FFF" opacity="0.9"/>
  <circle cx="128" cy="196" r="8" fill="#FFF" opacity="0.9"/>
  <circle cx="176" cy="176" r="8" fill="#FFF" opacity="0.9"/>
  
  <!-- Connections -->
  <line x1="80" y1="80" x2="128" y2="60" stroke="#FFF" stroke-width="2" opacity="0.6"/>
  <line x1="128" y1="60" x2="176" y2="80" stroke="#FFF" stroke-width="2" opacity="0.6"/>
  <line x1="80" y1="80" x2="60" y2="128" stroke="#FFF" stroke-width="2" opacity="0.6"/>
  <line x1="176" y1="80" x2="196" y2="128" stroke="#FFF" stroke-width="2" opacity="0.6"/>
  <line x1="60" y1="128" x2="128" y2="128" stroke="#FFF" stroke-width="3" opacity="0.8"/>
  <line x1="128" y1="128" x2="196" y2="128" stroke="#FFF" stroke-width="3" opacity="0.8"/>
  <line x1="80" y1="176" x2="128" y2="196" stroke="#FFF" stroke-width="2" opacity="0.6"/>
  <line x1="128" y1="196" x2="176" y2="176" stroke="#FFF" stroke-width="2" opacity="0.6"/>
  <line x1="80" y1="176" x2="60" y2="128" stroke="#FFF" stroke-width="2" opacity="0.6"/>
  <line x1="176" y1="176" x2="196" y2="128" stroke="#FFF" stroke-width="2" opacity="0.6"/>
  <line x1="128" y1="128" x2="80" y2="176" stroke="#FFF" stroke-width="2" opacity="0.6"/>
  <line x1="128" y1="128" x2="176" y2="176" stroke="#FFF" stroke-width="2" opacity="0.6"/>
</svg>