<svg width="256" height="249" xmlns="http://www.w3.org/2000/svg" preserveAspectRatio="xMidYMid">
  <path d="M128.001 248.162c-6.176 0-12.353-1.385-17.896-4.155L17.896 197.833c-11.086-5.54-17.896-16.626-17.896-29.126V80.455c0-12.5 6.81-23.586 17.896-29.126L110.105 5.155c11.086-5.54 24.706-5.54 35.792 0l92.209 46.174c11.086 5.54 17.896 16.626 17.896 29.126v88.252c0 12.5-6.81 23.586-17.896 29.126l-92.209 46.174c-5.543 2.77-11.72 4.155-17.896 4.155z" fill="#326CE5"/>
  <path d="M128.001 32.001c-52.928 0-95.999 43.071-95.999 95.999s43.071 95.999 95.999 95.999S224 180.928 224 128s-43.071-95.999-95.999-95.999zm0 176c-44.183 0-80.001-35.818-80.001-80.001S83.818 47.999 128.001 47.999 208.002 83.817 208.002 128s-35.818 80.001-80.001 80.001z" fill="#FFF"/>
  <circle cx="128" cy="128" r="48" fill="#326CE5"/>
  <path d="M128 96c-17.673 0-32 14.327-32 32s14.327 32 32 32 32-14.327 32-32-14.327-32-32-32zm0 48c-8.837 0-16-7.163-16-16s7.163-16 16-16 16 7.163 16 16-7.163 16-16 16z" fill="#FFF"/>
</svg>